<mxfile host="app.diagrams.net" modified="2021-12-03T08:42:11.882Z" agent="5.0 (Macintosh; Intel Mac OS X 10_15_7) AppleWebKit/537.36 (KHTML, like Gecko) Chrome/96.0.4664.55 Safari/537.36" etag="NdsGG20VSy_Ug6owRTC3" version="15.8.3" type="github">
  <diagram id="DGB42vkrHuFEjwNAvVn3" name="Page-1">
    <mxGraphModel dx="1581" dy="851" grid="0" gridSize="10" guides="1" tooltips="1" connect="1" arrows="1" fold="1" page="1" pageScale="1" pageWidth="1169" pageHeight="827" math="0" shadow="0">
      <root>
        <mxCell id="0" />
        <mxCell id="1" parent="0" />
        <mxCell id="VbqpkWxXZBzTbmOV1PEN-10" value="" style="edgeStyle=orthogonalEdgeStyle;rounded=0;orthogonalLoop=1;jettySize=auto;html=1;" edge="1" parent="1" source="VbqpkWxXZBzTbmOV1PEN-1" target="VbqpkWxXZBzTbmOV1PEN-2">
          <mxGeometry relative="1" as="geometry" />
        </mxCell>
        <mxCell id="VbqpkWxXZBzTbmOV1PEN-1" value="API" style="rounded=0;whiteSpace=wrap;html=1;" vertex="1" parent="1">
          <mxGeometry x="458" y="78" width="120" height="60" as="geometry" />
        </mxCell>
        <mxCell id="VbqpkWxXZBzTbmOV1PEN-2" value="RPC" style="rounded=0;whiteSpace=wrap;html=1;" vertex="1" parent="1">
          <mxGeometry x="458" y="188" width="120" height="60" as="geometry" />
        </mxCell>
        <mxCell id="VbqpkWxXZBzTbmOV1PEN-3" value="&lt;meta charset=&quot;utf-8&quot;&gt;&lt;span style=&quot;color: rgb(0, 0, 0); font-family: helvetica; font-size: 18px; font-style: normal; font-weight: 400; letter-spacing: normal; text-align: center; text-indent: 0px; text-transform: none; word-spacing: 0px; background-color: rgb(248, 249, 250); display: inline; float: none;&quot;&gt;&amp;nbsp;resources&lt;/span&gt;" style="rounded=0;whiteSpace=wrap;html=1;" vertex="1" parent="1">
          <mxGeometry x="458" y="528" width="120" height="60" as="geometry" />
        </mxCell>
        <mxCell id="VbqpkWxXZBzTbmOV1PEN-4" value="AddFileHandler" style="rounded=0;whiteSpace=wrap;html=1;" vertex="1" parent="1">
          <mxGeometry x="278" y="302" width="120" height="60" as="geometry" />
        </mxCell>
        <mxCell id="VbqpkWxXZBzTbmOV1PEN-14" value="" style="edgeStyle=orthogonalEdgeStyle;rounded=0;orthogonalLoop=1;jettySize=auto;html=1;" edge="1" parent="1" source="VbqpkWxXZBzTbmOV1PEN-5" target="VbqpkWxXZBzTbmOV1PEN-8">
          <mxGeometry relative="1" as="geometry" />
        </mxCell>
        <mxCell id="VbqpkWxXZBzTbmOV1PEN-5" value="&lt;span&gt;GetFileHandler&lt;/span&gt;" style="rounded=0;whiteSpace=wrap;html=1;" vertex="1" parent="1">
          <mxGeometry x="458" y="302" width="120" height="60" as="geometry" />
        </mxCell>
        <mxCell id="VbqpkWxXZBzTbmOV1PEN-6" value="&lt;span&gt;DelFileHandler&lt;/span&gt;" style="rounded=0;whiteSpace=wrap;html=1;" vertex="1" parent="1">
          <mxGeometry x="638" y="302" width="120" height="60" as="geometry" />
        </mxCell>
        <mxCell id="VbqpkWxXZBzTbmOV1PEN-9" value="" style="edgeStyle=orthogonalEdgeStyle;rounded=0;orthogonalLoop=1;jettySize=auto;html=1;" edge="1" parent="1" source="VbqpkWxXZBzTbmOV1PEN-8" target="VbqpkWxXZBzTbmOV1PEN-3">
          <mxGeometry relative="1" as="geometry" />
        </mxCell>
        <mxCell id="VbqpkWxXZBzTbmOV1PEN-8" value="service/ability" style="rounded=0;whiteSpace=wrap;html=1;" vertex="1" parent="1">
          <mxGeometry x="458" y="418" width="120" height="60" as="geometry" />
        </mxCell>
        <mxCell id="VbqpkWxXZBzTbmOV1PEN-11" value="" style="endArrow=classic;html=1;rounded=0;entryX=0.5;entryY=0;entryDx=0;entryDy=0;exitX=0.5;exitY=1;exitDx=0;exitDy=0;" edge="1" parent="1" source="VbqpkWxXZBzTbmOV1PEN-2" target="VbqpkWxXZBzTbmOV1PEN-4">
          <mxGeometry width="50" height="50" relative="1" as="geometry">
            <mxPoint x="348" y="258" as="sourcePoint" />
            <mxPoint x="398" y="208" as="targetPoint" />
          </mxGeometry>
        </mxCell>
        <mxCell id="VbqpkWxXZBzTbmOV1PEN-12" value="" style="endArrow=classic;html=1;rounded=0;" edge="1" parent="1" target="VbqpkWxXZBzTbmOV1PEN-5">
          <mxGeometry width="50" height="50" relative="1" as="geometry">
            <mxPoint x="518" y="248" as="sourcePoint" />
            <mxPoint x="328" y="398" as="targetPoint" />
          </mxGeometry>
        </mxCell>
        <mxCell id="VbqpkWxXZBzTbmOV1PEN-13" value="" style="endArrow=classic;html=1;rounded=0;entryX=0.5;entryY=0;entryDx=0;entryDy=0;exitX=0.5;exitY=1;exitDx=0;exitDy=0;" edge="1" parent="1" source="VbqpkWxXZBzTbmOV1PEN-2">
          <mxGeometry width="50" height="50" relative="1" as="geometry">
            <mxPoint x="618" y="228" as="sourcePoint" />
            <mxPoint x="702.5" y="302" as="targetPoint" />
          </mxGeometry>
        </mxCell>
        <mxCell id="VbqpkWxXZBzTbmOV1PEN-15" value="" style="endArrow=classic;html=1;rounded=0;entryX=0.5;entryY=0;entryDx=0;entryDy=0;exitX=0.5;exitY=1;exitDx=0;exitDy=0;" edge="1" parent="1" source="VbqpkWxXZBzTbmOV1PEN-4" target="VbqpkWxXZBzTbmOV1PEN-8">
          <mxGeometry width="50" height="50" relative="1" as="geometry">
            <mxPoint x="337" y="433" as="sourcePoint" />
            <mxPoint x="387" y="383" as="targetPoint" />
          </mxGeometry>
        </mxCell>
        <mxCell id="VbqpkWxXZBzTbmOV1PEN-16" value="" style="endArrow=classic;html=1;rounded=0;entryX=0.5;entryY=0;entryDx=0;entryDy=0;exitX=0.5;exitY=1;exitDx=0;exitDy=0;" edge="1" parent="1" target="VbqpkWxXZBzTbmOV1PEN-8">
          <mxGeometry width="50" height="50" relative="1" as="geometry">
            <mxPoint x="702.5" y="362" as="sourcePoint" />
            <mxPoint x="739" y="360" as="targetPoint" />
          </mxGeometry>
        </mxCell>
        <mxCell id="VbqpkWxXZBzTbmOV1PEN-17" value="go-fastdfs" style="rounded=0;whiteSpace=wrap;html=1;" vertex="1" parent="1">
          <mxGeometry x="551" y="644" width="120" height="60" as="geometry" />
        </mxCell>
        <mxCell id="VbqpkWxXZBzTbmOV1PEN-18" value="PgSQL" style="rounded=0;whiteSpace=wrap;html=1;" vertex="1" parent="1">
          <mxGeometry x="368" y="644" width="120" height="60" as="geometry" />
        </mxCell>
        <mxCell id="VbqpkWxXZBzTbmOV1PEN-19" value="" style="endArrow=classic;html=1;rounded=0;entryX=0.5;entryY=0;entryDx=0;entryDy=0;exitX=0.5;exitY=1;exitDx=0;exitDy=0;" edge="1" parent="1" source="VbqpkWxXZBzTbmOV1PEN-3" target="VbqpkWxXZBzTbmOV1PEN-18">
          <mxGeometry width="50" height="50" relative="1" as="geometry">
            <mxPoint x="378" y="618" as="sourcePoint" />
            <mxPoint x="428" y="568" as="targetPoint" />
          </mxGeometry>
        </mxCell>
        <mxCell id="VbqpkWxXZBzTbmOV1PEN-20" value="" style="endArrow=classic;html=1;rounded=0;entryX=0.5;entryY=0;entryDx=0;entryDy=0;" edge="1" parent="1" target="VbqpkWxXZBzTbmOV1PEN-17">
          <mxGeometry width="50" height="50" relative="1" as="geometry">
            <mxPoint x="518" y="588" as="sourcePoint" />
            <mxPoint x="658" y="558" as="targetPoint" />
          </mxGeometry>
        </mxCell>
      </root>
    </mxGraphModel>
  </diagram>
</mxfile>
